<svg width="73" height="72" viewBox="0 0 73 72" fill="none" xmlns="http://www.w3.org/2000/svg">
<path d="M48.5 48L57.5 24L66.5 48C63.89 49.95 60.74 51 57.5 51C54.26 51 51.11 49.95 48.5 48Z" stroke="#457B9D" stroke-width="6" stroke-linecap="round" stroke-linejoin="round"/>
<path d="M6.5 48L15.5 24L24.5 48C21.89 49.95 18.74 51 15.5 51C12.26 51 9.11 49.95 6.5 48Z" stroke="#457B9D" stroke-width="6" stroke-linecap="round" stroke-linejoin="round"/>
<path d="M21.5 63H51.5" stroke="#457B9D" stroke-width="6" stroke-linecap="round" stroke-linejoin="round"/>
<path d="M36.5 9V63" stroke="#457B9D" stroke-width="6" stroke-linecap="round" stroke-linejoin="round"/>
<path d="M9.5 21H15.5C21.5 21 30.5 18 36.5 15C42.5 18 51.5 21 57.5 21H63.5" stroke="#457B9D" stroke-width="6" stroke-linecap="round" stroke-linejoin="round"/>
</svg>
