<svg width="73" height="72" viewBox="0 0 73 72" fill="none" xmlns="http://www.w3.org/2000/svg">
<path d="M12.5 42C11.9323 42.0019 11.3757 41.8428 10.8948 41.5409C10.414 41.2391 10.0287 40.8071 9.78363 40.295C9.53857 39.7829 9.44386 39.2118 9.51048 38.648C9.57709 38.0842 9.80232 37.5509 10.16 37.11L39.86 6.51C40.0828 6.25284 40.3864 6.07907 40.7209 6.0172C41.0555 5.95533 41.4012 6.00904 41.7012 6.16951C42.0012 6.32999 42.2377 6.58769 42.372 6.90032C42.5062 7.21296 42.5302 7.56195 42.44 7.89L36.68 25.95C36.5101 26.4046 36.4531 26.8936 36.5138 27.375C36.5744 27.8565 36.751 28.316 37.0282 28.7143C37.3055 29.1125 37.6753 29.4375 38.1058 29.6615C38.5363 29.8854 39.0147 30.0016 39.5 30H60.5C61.0677 29.9981 61.6243 30.1573 62.1051 30.4591C62.5859 30.7609 62.9713 31.1929 63.2163 31.705C63.4614 32.2171 63.5561 32.7882 63.4895 33.352C63.4229 33.9158 63.1976 34.4491 62.84 34.89L33.14 65.49C32.9172 65.7472 32.6136 65.9209 32.279 65.9828C31.9445 66.0447 31.5988 65.991 31.2988 65.8305C30.9988 65.67 30.7622 65.4123 30.628 65.0997C30.4937 64.787 30.4697 64.4381 30.56 64.11L36.32 46.05C36.4898 45.5954 36.5469 45.1064 36.4862 44.625C36.4255 44.1435 36.249 43.684 35.9717 43.2857C35.6944 42.8875 35.3247 42.5625 34.8942 42.3385C34.4636 42.1146 33.9852 41.9984 33.5 42H12.5Z" stroke="#457B9D" stroke-width="6" stroke-linecap="round" stroke-linejoin="round"/>
</svg>
